<?xml version="1.0" encoding="UTF-8"?>
<!DOCTYPE score-partwise PUBLIC "-//Recordare//DTD MusicXML 3.0.1 Partwise//EN" "http://www.musicxml.org/dtds/partwise.dtd">
<score-partwise version="3.0.1">
  <identification>
    <creator type="composer">Ab</creator>
    <encoding>
      <software>Audiveris 5.2.3</software>
      <supports type="yes" element="print" attribute="new-system" value="yes"></supports>
      <supports type="yes" element="print" attribute="new-page" value="yes"></supports>
      <software>ProxyMusic 3.0.1.8e1a2c5</software>
      <encoding-date>2021-10-03</encoding-date>
    </encoding>
    <source>C:\Stockage\Creation\Dev\Python\BoplandScrapping\websiteContent\Images\walking-bass-lines\auKgTJLQ.png</source>
    <miscellaneous>
      <miscellaneous-field name="source-file">C:\Stockage\Creation\Dev\Python\BoplandScrapping\websiteContent\Images\walking-bass-lines\auKgTJLQ.png</miscellaneous-field>
      <miscellaneous-field name="source-sheet-1">1</miscellaneous-field>
    </miscellaneous>
  </identification>
  <defaults>
    <scaling>
      <millimeters>7.1120</millimeters>
      <tenths>40</tenths>
    </scaling>
    <page-layout>
      <page-height>650</page-height>
      <page-width>1008</page-width>
      <page-margins type="both">
        <left-margin>80</left-margin>
        <right-margin>80</right-margin>
        <top-margin>80</top-margin>
        <bottom-margin>80</bottom-margin>
      </page-margins>
    </page-layout>
    <lyric-font font-family="Default" font-size="10"></lyric-font>
  </defaults>
  <credit page="1">
    <credit-type>composer</credit-type>
    <credit-words default-x="968" default-y="72" font-family="sans-serif" font-size="12">Ab</credit-words>
  </credit>
  <part-list>
    <score-part id="P1">
      <part-name>Voice</part-name>
      <score-instrument id="P1-I1">
        <instrument-name>Piano</instrument-name>
      </score-instrument>
      <midi-instrument id="P1-I1">
        <midi-channel>1</midi-channel>
        <midi-program>54</midi-program>
        <volume>78</volume>
      </midi-instrument>
    </score-part>
  </part-list>
  <!--= = = = = = = = = = = = = = = = = = = = = = = = = = = = =-->
  <part id="P1">
    <!--=======================================================-->
    <measure number="1" width="202">
      <print>
        <system-layout>
          <system-margins>
            <left-margin>-80</left-margin>
            <right-margin>-79</right-margin>
          </system-margins>
          <top-system-distance>-30</top-system-distance>
        </system-layout>
        <measure-numbering>system</measure-numbering>
      </print>
      <attributes>
        <divisions>1</divisions>
        <key>
          <fifths>-4</fifths>
        </key>
        <time symbol="common">
          <beats>4</beats>
          <beat-type>4</beat-type>
        </time>
        <clef>
          <sign>F</sign>
          <line>4</line>
        </clef>
        <staff-details print-object="yes"></staff-details>
      </attributes>
      <direction placement="above">
        <direction-type>
          <words></words>
        </direction-type>
        <sound tempo="120"></sound>
      </direction>
      <note default-x="127">
        <pitch>
          <step>A</step>
          <alter>-1</alter>
          <octave>2</octave>
        </pitch>
        <duration>1</duration>
        <voice>1</voice>
        <type>quarter</type>
        <stem default-y="1">up</stem>
      </note>
      <note default-x="142">
        <pitch>
          <step>B</step>
          <alter>-1</alter>
          <octave>2</octave>
        </pitch>
        <duration>1</duration>
        <voice>1</voice>
        <type>quarter</type>
        <stem default-y="5">up</stem>
      </note>
      <note default-x="168">
        <pitch>
          <step>B</step>
          <octave>2</octave>
        </pitch>
        <duration>1</duration>
        <voice>1</voice>
        <type>quarter</type>
        <accidental>natural</accidental>
        <stem default-y="5">up</stem>
      </note>
      <note default-x="185">
        <pitch>
          <step>C</step>
          <octave>3</octave>
        </pitch>
        <duration>1</duration>
        <voice>1</voice>
        <type>quarter</type>
        <stem default-y="10">up</stem>
      </note>
    </measure>
    <!--=======================================================-->
    <measure number="2" width="80">
      <note default-x="8">
        <pitch>
          <step>F</step>
          <octave>2</octave>
        </pitch>
        <duration>1</duration>
        <voice>1</voice>
        <type>quarter</type>
        <stem default-y="-9">up</stem>
      </note>
      <note default-x="36">
        <pitch>
          <step>G</step>
          <alter>-1</alter>
          <octave>2</octave>
        </pitch>
        <duration>1</duration>
        <voice>1</voice>
        <type>quarter</type>
        <accidental>flat</accidental>
        <stem default-y="-5">up</stem>
      </note>
      <note default-x="62">
        <pitch>
          <step>G</step>
          <octave>2</octave>
        </pitch>
        <duration>1</duration>
        <voice>1</voice>
        <type>quarter</type>
        <accidental>natural</accidental>
        <stem default-y="-5">up</stem>
      </note>
      <backup>
        <duration>3</duration>
      </backup>
      <note default-x="4">
        <pitch>
          <step>D</step>
          <alter>-1</alter>
          <octave>3</octave>
        </pitch>
        <duration>1</duration>
        <voice>2</voice>
        <type>quarter</type>
        <stem default-y="-52">down</stem>
      </note>
    </measure>
    <!--=======================================================-->
    <measure number="3" width="81">
      <note default-x="4">
        <pitch>
          <step>A</step>
          <alter>-1</alter>
          <octave>2</octave>
        </pitch>
        <duration>1</duration>
        <voice>1</voice>
        <type>quarter</type>
        <stem default-y="1">up</stem>
      </note>
      <note default-x="20">
        <pitch>
          <step>C</step>
          <octave>3</octave>
        </pitch>
        <duration>1</duration>
        <voice>1</voice>
        <type>quarter</type>
        <stem default-y="10">up</stem>
      </note>
      <backup>
        <duration>2</duration>
      </backup>
      <forward>
        <duration>1</duration>
        <voice>2</voice>
      </forward>
      <note default-x="37">
        <pitch>
          <step>E</step>
          <alter>-1</alter>
          <octave>3</octave>
        </pitch>
        <duration>1</duration>
        <voice>2</voice>
        <type>quarter</type>
        <stem default-y="-49">down</stem>
      </note>
      <note default-x="65">
        <pitch>
          <step>G</step>
          <alter>-1</alter>
          <octave>3</octave>
        </pitch>
        <duration>1</duration>
        <voice>2</voice>
        <type>quarter</type>
        <accidental>flat</accidental>
        <stem default-y="-40">down</stem>
      </note>
    </measure>
    <!--=======================================================-->
    <measure number="4" width="102">
      <note default-x="5">
        <pitch>
          <step>A</step>
          <alter>-1</alter>
          <octave>3</octave>
        </pitch>
        <duration>1</duration>
        <voice>1</voice>
        <type>quarter</type>
        <stem default-y="-34">down</stem>
      </note>
      <note default-x="32">
        <pitch>
          <step>G</step>
          <alter>-1</alter>
          <octave>3</octave>
        </pitch>
        <duration>1</duration>
        <voice>1</voice>
        <type>quarter</type>
        <accidental>flat</accidental>
        <stem default-y="-40">down</stem>
      </note>
      <note default-x="49">
        <pitch>
          <step>E</step>
          <alter>-1</alter>
          <octave>3</octave>
        </pitch>
        <duration>1</duration>
        <voice>1</voice>
        <type>quarter</type>
        <stem default-y="-49">down</stem>
      </note>
      <note default-x="85">
        <pitch>
          <step>E</step>
          <alter>-2</alter>
          <octave>3</octave>
        </pitch>
        <duration>1</duration>
        <voice>1</voice>
        <type>quarter</type>
        <accidental>flat-flat</accidental>
        <stem default-y="-49">down</stem>
      </note>
    </measure>
    <!--=======================================================-->
    <measure number="5" width="57">
      <note default-x="4">
        <pitch>
          <step>D</step>
          <alter>-1</alter>
          <octave>3</octave>
        </pitch>
        <duration>1</duration>
        <voice>1</voice>
        <type>quarter</type>
        <stem default-y="-52">down</stem>
      </note>
      <note default-x="20">
        <pitch>
          <step>F</step>
          <octave>3</octave>
        </pitch>
        <duration>1</duration>
        <voice>1</voice>
        <type>quarter</type>
        <stem default-y="-44">down</stem>
      </note>
      <note default-x="35">
        <pitch>
          <step>A</step>
          <alter>-1</alter>
          <octave>3</octave>
        </pitch>
        <duration>1</duration>
        <voice>1</voice>
        <type>quarter</type>
        <stem default-y="-34">down</stem>
      </note>
      <backup>
        <duration>3</duration>
      </backup>
      <forward>
        <duration>2</duration>
        <voice>2</voice>
      </forward>
      <note default-x="40">
        <pitch>
          <step>C</step>
          <octave>3</octave>
        </pitch>
        <duration>1</duration>
        <voice>2</voice>
        <type>quarter</type>
        <stem default-y="10">up</stem>
      </note>
    </measure>
    <!--=======================================================-->
    <measure number="6" width="111">
      <note default-x="5">
        <pitch>
          <step>D</step>
          <alter>-1</alter>
          <octave>3</octave>
        </pitch>
        <duration>1</duration>
        <voice>1</voice>
        <type>quarter</type>
        <stem default-y="-52">down</stem>
      </note>
      <note default-x="41">
        <pitch>
          <step>E</step>
          <alter>-2</alter>
          <octave>3</octave>
        </pitch>
        <duration>1</duration>
        <voice>1</voice>
        <type>quarter</type>
        <accidental>flat-flat</accidental>
        <stem default-y="-49">down</stem>
      </note>
      <note default-x="58">
        <pitch>
          <step>D</step>
          <alter>-1</alter>
          <octave>3</octave>
        </pitch>
        <duration>1</duration>
        <voice>1</voice>
        <type>quarter</type>
        <stem default-y="-52">down</stem>
      </note>
      <note default-x="93">
        <pitch>
          <step>B</step>
          <alter>-2</alter>
          <octave>2</octave>
        </pitch>
        <duration>1</duration>
        <voice>1</voice>
        <type>quarter</type>
        <accidental>flat-flat</accidental>
        <stem default-y="5">up</stem>
      </note>
    </measure>
    <!--=======================================================-->
    <measure number="7" width="81">
      <note default-x="4">
        <pitch>
          <step>A</step>
          <alter>-1</alter>
          <octave>2</octave>
        </pitch>
        <duration>1</duration>
        <voice>1</voice>
        <type>quarter</type>
        <stem default-y="1">up</stem>
      </note>
      <harmony default-y="18" relative-x="-16" font-size="12.24" placement="above">
        <root>
          <root-step>A</root-step>
          <root-alter>-1</root-alter>
        </root>
        <kind text="">major</kind>
      </harmony>
      <note default-x="20">
        <pitch>
          <step>A</step>
          <alter>-1</alter>
          <octave>2</octave>
        </pitch>
        <duration>1</duration>
        <voice>1</voice>
        <type>quarter</type>
        <stem default-y="1">up</stem>
      </note>
      <note default-x="35">
        <pitch>
          <step>G</step>
          <octave>2</octave>
        </pitch>
        <duration>1</duration>
        <voice>1</voice>
        <type>quarter</type>
        <stem default-y="-5">up</stem>
      </note>
      <note default-x="64">
        <pitch>
          <step>G</step>
          <alter>-1</alter>
          <octave>2</octave>
        </pitch>
        <duration>1</duration>
        <voice>1</voice>
        <type>quarter</type>
        <accidental>flat</accidental>
        <stem default-y="-5">up</stem>
      </note>
    </measure>
    <!--=======================================================-->
    <measure number="8" width="79">
      <harmony default-y="31" relative-x="2" font-size="13.44" placement="above">
        <root>
          <root-step>F</root-step>
        </root>
        <kind text="">major</kind>
      </harmony>
      <note default-x="4">
        <pitch>
          <step>F</step>
          <octave>2</octave>
        </pitch>
        <duration>1</duration>
        <voice>1</voice>
        <type>quarter</type>
        <stem default-y="-9">up</stem>
      </note>
      <note default-x="20">
        <pitch>
          <step>G</step>
          <octave>2</octave>
        </pitch>
        <duration>1</duration>
        <voice>1</voice>
        <type>quarter</type>
        <stem default-y="-5">up</stem>
      </note>
      <note default-x="36">
        <pitch>
          <step>A</step>
          <alter>-1</alter>
          <octave>2</octave>
        </pitch>
        <duration>1</duration>
        <voice>1</voice>
        <type>quarter</type>
        <stem default-y="1">up</stem>
      </note>
      <note default-x="62">
        <pitch>
          <step>A</step>
          <octave>2</octave>
        </pitch>
        <duration>1</duration>
        <voice>1</voice>
        <type>quarter</type>
        <accidental>natural</accidental>
        <stem default-y="1">up</stem>
      </note>
    </measure>
    <!--=======================================================-->
    <measure number="9" width="79">
      <direction placement="above">
        <direction-type>
          <words default-y="22" relative-x="3" font-family="sans-serif" font-size="12">|3l‚m7 El,7</words>
        </direction-type>
      </direction>
      <note default-x="3">
        <pitch>
          <step>B</step>
          <alter>-1</alter>
          <octave>2</octave>
        </pitch>
        <duration>1</duration>
        <voice>1</voice>
        <type>quarter</type>
        <stem default-y="5">up</stem>
      </note>
      <note default-x="20">
        <pitch>
          <step>C</step>
          <octave>3</octave>
        </pitch>
        <duration>1</duration>
        <voice>1</voice>
        <type>quarter</type>
        <stem default-y="10">up</stem>
        <notations>
          <articulations>
            <staccato placement="above" default-y="21"></staccato>
          </articulations>
        </notations>
      </note>
      <backup>
        <duration>2</duration>
      </backup>
      <forward>
        <duration>1</duration>
        <voice>2</voice>
      </forward>
      <note default-x="37">
        <pitch>
          <step>D</step>
          <alter>-1</alter>
          <octave>3</octave>
        </pitch>
        <duration>1</duration>
        <voice>2</voice>
        <type>quarter</type>
        <stem default-y="-52">down</stem>
      </note>
      <note default-x="62">
        <pitch>
          <step>D</step>
          <octave>3</octave>
        </pitch>
        <duration>1</duration>
        <voice>2</voice>
        <type>quarter</type>
        <accidental>natural</accidental>
        <stem default-y="-52">down</stem>
      </note>
    </measure>
    <!--=======================================================-->
    <measure number="10" width="92">
      <note default-x="5">
        <pitch>
          <step>E</step>
          <alter>-1</alter>
          <octave>3</octave>
        </pitch>
        <duration>1</duration>
        <voice>1</voice>
        <type>quarter</type>
        <stem default-y="-49">down</stem>
      </note>
      <note default-x="20">
        <pitch>
          <step>F</step>
          <octave>3</octave>
        </pitch>
        <duration>1</duration>
        <voice>1</voice>
        <type>quarter</type>
        <stem default-y="-44">down</stem>
      </note>
      <note default-x="49">
        <pitch>
          <step>G</step>
          <alter>-1</alter>
          <octave>3</octave>
        </pitch>
        <duration>1</duration>
        <voice>1</voice>
        <type>quarter</type>
        <accidental>flat</accidental>
        <stem default-y="-40">down</stem>
      </note>
      <note default-x="76">
        <pitch>
          <step>G</step>
          <octave>3</octave>
        </pitch>
        <duration>1</duration>
        <voice>1</voice>
        <type>quarter</type>
        <accidental>natural</accidental>
        <stem default-y="-40">down</stem>
      </note>
    </measure>
    <!--=======================================================-->
    <measure number="11" width="43">
      <note default-x="5">
        <pitch>
          <step>A</step>
          <alter>-1</alter>
          <octave>3</octave>
        </pitch>
        <duration>4</duration>
        <voice>1</voice>
        <type>whole</type>
      </note>
    </measure>
  </part>
</score-partwise>