<?xml version="1.0" encoding="UTF-8"?>
<!DOCTYPE score-partwise PUBLIC "-//Recordare//DTD MusicXML 3.0.1 Partwise//EN" "http://www.musicxml.org/dtds/partwise.dtd">
<score-partwise version="3.0.1">
  <identification>
    <encoding>
      <software>Audiveris 5.2.3</software>
      <supports type="yes" element="print" attribute="new-system" value="yes"></supports>
      <supports type="yes" element="print" attribute="new-page" value="yes"></supports>
      <software>ProxyMusic 3.0.1.8e1a2c5</software>
      <encoding-date>2021-10-03</encoding-date>
    </encoding>
    <source>C:\Stockage\Creation\Dev\Python\BoplandScrapping\websiteContent\Images\walking-bass-lines\tapoHpXb.png</source>
    <miscellaneous>
      <miscellaneous-field name="source-file">C:\Stockage\Creation\Dev\Python\BoplandScrapping\websiteContent\Images\walking-bass-lines\tapoHpXb.png</miscellaneous-field>
      <miscellaneous-field name="source-sheet-1">1</miscellaneous-field>
    </miscellaneous>
  </identification>
  <defaults>
    <scaling>
      <millimeters>7.1120</millimeters>
      <tenths>40</tenths>
    </scaling>
    <page-layout>
      <page-height>650</page-height>
      <page-width>939</page-width>
      <page-margins type="both">
        <left-margin>80</left-margin>
        <right-margin>80</right-margin>
        <top-margin>80</top-margin>
        <bottom-margin>80</bottom-margin>
      </page-margins>
    </page-layout>
    <lyric-font font-family="Default" font-size="10"></lyric-font>
  </defaults>
  <part-list>
    <score-part id="P1">
      <part-name>Voice</part-name>
      <score-instrument id="P1-I1">
        <instrument-name>Piano</instrument-name>
      </score-instrument>
      <midi-instrument id="P1-I1">
        <midi-channel>1</midi-channel>
        <midi-program>54</midi-program>
        <volume>78</volume>
      </midi-instrument>
    </score-part>
  </part-list>
  <!--= = = = = = = = = = = = = = = = = = = = = = = = = = = = =-->
  <part id="P1">
    <!--=======================================================-->
    <measure number="1" width="195">
      <print>
        <system-layout>
          <system-margins>
            <left-margin>-80</left-margin>
            <right-margin>-79</right-margin>
          </system-margins>
          <top-system-distance>-27</top-system-distance>
        </system-layout>
        <measure-numbering>system</measure-numbering>
      </print>
      <attributes>
        <divisions>12</divisions>
        <key>
          <fifths>-1</fifths>
        </key>
        <time symbol="common">
          <beats>4</beats>
          <beat-type>4</beat-type>
        </time>
        <clef>
          <sign>F</sign>
          <line>4</line>
        </clef>
        <staff-details print-object="yes"></staff-details>
      </attributes>
      <direction placement="above">
        <direction-type>
          <words></words>
        </direction-type>
        <sound tempo="120"></sound>
      </direction>
      <note default-x="100">
        <pitch>
          <step>G</step>
          <octave>2</octave>
        </pitch>
        <duration>12</duration>
        <voice>1</voice>
        <type>quarter</type>
        <stem default-y="-5">up</stem>
      </note>
      <harmony default-y="20" relative-x="-22" font-size="13.92" placement="above">
        <root>
          <root-step>G</root-step>
        </root>
        <kind text="m">minor</kind>
      </harmony>
      <note default-x="123">
        <pitch>
          <step>A</step>
          <octave>2</octave>
        </pitch>
        <duration>12</duration>
        <voice>1</voice>
        <type>quarter</type>
        <stem default-y="1">up</stem>
      </note>
      <note default-x="146">
        <pitch>
          <step>B</step>
          <alter>-1</alter>
          <octave>2</octave>
        </pitch>
        <duration>12</duration>
        <voice>1</voice>
        <type>quarter</type>
        <stem default-y="5">up</stem>
      </note>
      <note default-x="171">
        <pitch>
          <step>D</step>
          <octave>3</octave>
        </pitch>
        <duration>12</duration>
        <voice>1</voice>
        <type>quarter</type>
        <stem default-y="-53">down</stem>
      </note>
    </measure>
    <!--=======================================================-->
    <measure number="2" width="102">
      <note default-x="6">
        <pitch>
          <step>G</step>
          <octave>3</octave>
        </pitch>
        <duration>12</duration>
        <voice>1</voice>
        <type>quarter</type>
        <stem default-y="-40">down</stem>
      </note>
      <note default-x="30">
        <pitch>
          <step>A</step>
          <octave>3</octave>
        </pitch>
        <duration>12</duration>
        <voice>1</voice>
        <type>quarter</type>
        <stem default-y="-35">down</stem>
      </note>
      <note default-x="54">
        <pitch>
          <step>B</step>
          <alter>-1</alter>
          <octave>3</octave>
        </pitch>
        <duration>12</duration>
        <voice>1</voice>
        <type>quarter</type>
        <stem default-y="-30">down</stem>
      </note>
      <note default-x="80">
        <pitch>
          <step>D</step>
          <octave>4</octave>
        </pitch>
        <duration>12</duration>
        <voice>1</voice>
        <type>quarter</type>
        <stem default-y="-20">down</stem>
      </note>
    </measure>
    <!--=======================================================-->
    <measure number="3" width="103">
      <note default-x="8">
        <rest>
          <display-step>G</display-step>
          <display-octave>4</display-octave>
        </rest>
        <duration>3</duration>
        <voice>1</voice>
        <type>16th</type>
      </note>
      <backup>
        <duration>3</duration>
      </backup>
      <note default-x="6">
        <pitch>
          <step>C</step>
          <octave>4</octave>
        </pitch>
        <duration>12</duration>
        <voice>2</voice>
        <type>quarter</type>
        <stem default-y="-25">down</stem>
      </note>
      <note default-x="27">
        <pitch>
          <step>A</step>
          <octave>3</octave>
        </pitch>
        <duration>12</duration>
        <voice>2</voice>
        <type>quarter</type>
        <stem default-y="-35">down</stem>
      </note>
      <note default-x="48">
        <pitch>
          <step>F</step>
          <octave>3</octave>
        </pitch>
        <duration>12</duration>
        <voice>2</voice>
        <type>quarter</type>
        <stem default-y="-44">down</stem>
      </note>
      <note default-x="80">
        <pitch>
          <step>E</step>
          <alter>-1</alter>
          <octave>3</octave>
        </pitch>
        <duration>12</duration>
        <voice>2</voice>
        <type>quarter</type>
        <accidental>flat</accidental>
        <stem default-y="-49">down</stem>
      </note>
    </measure>
    <!--=======================================================-->
    <measure number="4" width="179">
      <note default-x="4">
        <pitch>
          <step>D</step>
          <octave>3</octave>
        </pitch>
        <duration>12</duration>
        <voice>1</voice>
        <type>quarter</type>
        <stem default-y="-53">down</stem>
      </note>
      <note default-x="39">
        <pitch>
          <step>F</step>
          <alter>1</alter>
          <octave>3</octave>
        </pitch>
        <duration>12</duration>
        <voice>1</voice>
        <type>quarter</type>
        <accidental>sharp</accidental>
        <stem default-y="-44">down</stem>
      </note>
      <note default-x="71">
        <pitch>
          <step>E</step>
          <alter>-1</alter>
          <octave>3</octave>
        </pitch>
        <duration>8</duration>
        <voice>1</voice>
        <type>quarter</type>
        <accidental>flat</accidental>
        <time-modification>
          <actual-notes>3</actual-notes>
          <normal-notes>2</normal-notes>
        </time-modification>
        <stem default-y="-44">down</stem>
        <notations>
          <tuplet type="start" number="1" placement="below"></tuplet>
        </notations>
      </note>
      <note default-x="89">
        <pitch>
          <step>D</step>
          <octave>3</octave>
        </pitch>
        <duration>8</duration>
        <voice>1</voice>
        <type>quarter</type>
        <time-modification>
          <actual-notes>3</actual-notes>
          <normal-notes>2</normal-notes>
        </time-modification>
        <stem default-y="-47">down</stem>
      </note>
      <note default-x="107">
        <pitch>
          <step>C</step>
          <octave>3</octave>
        </pitch>
        <duration>8</duration>
        <voice>1</voice>
        <type>quarter</type>
        <time-modification>
          <actual-notes>3</actual-notes>
          <normal-notes>2</normal-notes>
        </time-modification>
        <stem default-y="-50">down</stem>
        <notations>
          <tuplet type="stop" number="1"></tuplet>
        </notations>
      </note>
      <backup>
        <duration>48</duration>
      </backup>
      <forward>
        <duration>40</duration>
        <voice>2</voice>
      </forward>
      <note default-x="124">
        <pitch>
          <step>B</step>
          <alter>-1</alter>
          <octave>2</octave>
        </pitch>
        <duration>12</duration>
        <voice>2</voice>
        <type>quarter</type>
        <stem default-y="3">up</stem>
      </note>
      <note default-x="155">
        <pitch>
          <step>F</step>
          <alter>1</alter>
          <octave>2</octave>
        </pitch>
        <duration>12</duration>
        <voice>2</voice>
        <type>quarter</type>
        <accidental>sharp</accidental>
        <stem default-y="-5">up</stem>
      </note>
    </measure>
    <!--=======================================================-->
    <measure number="5" width="100">
      <note default-x="5">
        <pitch>
          <step>G</step>
          <octave>2</octave>
        </pitch>
        <duration>12</duration>
        <voice>1</voice>
        <type>quarter</type>
        <stem default-y="-5">up</stem>
      </note>
      <note default-x="29">
        <pitch>
          <step>A</step>
          <octave>2</octave>
        </pitch>
        <duration>12</duration>
        <voice>1</voice>
        <type>quarter</type>
        <stem default-y="1">up</stem>
        <notations>
          <slur type="start" number="1" bezier-x="2" bezier-y="2" default-x="8" default-y="32" placement="above"></slur>
        </notations>
      </note>
      <note default-x="51">
        <pitch>
          <step>B</step>
          <alter>-1</alter>
          <octave>2</octave>
        </pitch>
        <duration>12</duration>
        <voice>1</voice>
        <type>quarter</type>
        <stem default-y="5">up</stem>
        <notations>
          <slur type="stop" number="1" bezier-x="-3" bezier-y="1" default-x="-6" default-y="33"></slur>
        </notations>
      </note>
      <note default-x="76">
        <pitch>
          <step>D</step>
          <octave>3</octave>
        </pitch>
        <duration>12</duration>
        <voice>1</voice>
        <type>quarter</type>
        <stem default-y="-53">down</stem>
      </note>
    </measure>
    <!--=======================================================-->
    <measure number="6" width="100">
      <note default-x="4">
        <pitch>
          <step>C</step>
          <octave>3</octave>
        </pitch>
        <duration>12</duration>
        <voice>1</voice>
        <type>quarter</type>
        <stem default-y="10">up</stem>
      </note>
      <note default-x="41">
        <pitch>
          <step>G</step>
          <octave>2</octave>
        </pitch>
        <duration>12</duration>
        <voice>1</voice>
        <type>quarter</type>
        <stem default-y="-5">up</stem>
      </note>
      <note default-x="74">
        <pitch>
          <step>G</step>
          <alter>-1</alter>
          <octave>2</octave>
        </pitch>
        <duration>12</duration>
        <voice>1</voice>
        <type>quarter</type>
        <accidental>flat</accidental>
        <stem default-y="-5">up</stem>
      </note>
      <backup>
        <duration>36</duration>
      </backup>
      <forward>
        <duration>12</duration>
        <voice>2</voice>
      </forward>
      <note default-x="30">
        <pitch>
          <step>E</step>
          <octave>3</octave>
        </pitch>
        <duration>12</duration>
        <voice>2</voice>
        <type>quarter</type>
        <stem default-y="-49">down</stem>
      </note>
    </measure>
    <!--=======================================================-->
    <measure number="7" width="117">
      <note default-x="7">
        <rest>
          <display-step>G</display-step>
          <display-octave>4</display-octave>
        </rest>
        <duration>3</duration>
        <voice>1</voice>
        <type>16th</type>
      </note>
      <backup>
        <duration>3</duration>
      </backup>
      <note default-x="5">
        <pitch>
          <step>F</step>
          <octave>2</octave>
        </pitch>
        <duration>12</duration>
        <voice>2</voice>
        <type>quarter</type>
        <stem default-y="-9">up</stem>
      </note>
      <note default-x="31">
        <pitch>
          <step>A</step>
          <octave>2</octave>
        </pitch>
        <duration>12</duration>
        <voice>2</voice>
        <type>quarter</type>
        <stem default-y="1">up</stem>
      </note>
      <note default-x="57">
        <pitch>
          <step>C</step>
          <octave>3</octave>
        </pitch>
        <duration>12</duration>
        <voice>2</voice>
        <type>quarter</type>
        <stem default-y="10">up</stem>
      </note>
      <note default-x="91">
        <pitch>
          <step>C</step>
          <alter>1</alter>
          <octave>3</octave>
        </pitch>
        <duration>12</duration>
        <voice>2</voice>
        <type>quarter</type>
        <accidental>sharp</accidental>
        <stem default-y="10">up</stem>
      </note>
    </measure>
    <!--=======================================================-->
    <measure number="8" width="41">
      <note default-x="5">
        <pitch>
          <step>D</step>
          <octave>3</octave>
        </pitch>
        <duration>48</duration>
        <voice>1</voice>
        <type>whole</type>
      </note>
    </measure>
  </part>
</score-partwise>